# xmcd
#
# Track frame offsets:
#	150
#	10428
#	20039
#	30157
#	39470
#	47409
#	59024
#	69858
#	79297
#	90527
#	98897
#	111579
#	119798
#	129778
#	140143
#	149063
#	159569
#	169070
#	181720
#	190567
#	205253
#	214518
#	225222
#	234657
#	244954
#	256657
#
# Disc length: 3571 seconds
#
# Revision: 0
# Processed by: cddbd v1.5.2PL0 Copyright (c) Steve Scherf et al.
# Submitted via: audiograbber 1.83.01
#
DISCID=670df11a
DTITLE=—борник - The Big Top Records Story: Classic New York Pop 1958-1964
DYEAR=1900
DGENRE=
TTITLE0=Shades - Sunglasses
TTITLE1=Bobby Pedrick,Jr - White Bucks And Saddle Shoes
TTITLE2=Don and Juan - What's Your Name
TTITLE3=Jamie Coe - The Fool
TTITLE4=Andrea Carroll - The Doolang
TTITLE5=Johnny and The Hurricanes - Minnesota Fats
TTITLE6=The Dynamics - Misery
TTITLE7=Mickey Denton - Steady Kind
TTITLE8=Arlene Smith - He Knows I Love Him Too Much
TTITLE9=Bobby Pedrick,Jr - My Private Joy
TTITLE10=Marci and The Mates - Suddenly We're Strangers
TTITLE11=Johnny and The Hurricanes - Rocking Goose
TTITLE12=The Honeytones - Don't Look Now But...
TTITLE13=Sammy Turner - Lavender Blue
TTITLE14=Maximilian - The Snake
TTITLE15=Del Shannon - Runaway
TTITLE16=Sammy Turner - Raincoat In The River
TTITLE17=Del Shannon - Little Town Flirt
TTITLE18=Gerri Granger - Don't Want Your Letters
TTITLE19=Lou Johnson - (There's) Always Something There To Remind Me
TTITLE20=Richard Scott - Lipstick And High Heel Shoes
TTITLE21=Don and Juan - True Love Never Runs Smooth
TTITLE22=Andrea Carroll - It Hurts To Be Sixteen
TTITLE23=Johnny Gibson - Midnight
TTITLE24=Karen Lake - Airmail Special Delivery
TTITLE25=VIPs - Flashback
EXTD=
EXTT0=
EXTT1=
EXTT2=
EXTT3=
EXTT4=
EXTT5=
EXTT6=
EXTT7=
EXTT8=
EXTT9=
EXTT10=
EXTT11=
EXTT12=
EXTT13=
EXTT14=
EXTT15=
EXTT16=
EXTT17=
EXTT18=
EXTT19=
EXTT20=
EXTT21=
EXTT22=
EXTT23=
EXTT24=
EXTT25=
PLAYORDER=
